<svg id="图层_1" data-name="图层 1" xmlns="http://www.w3.org/2000/svg" viewBox="0 0 264.75 60"><defs><style>.cls-1{fill:#eb0f3a;}.cls-2{fill:#147fde;}.cls-3{fill:#d6132e;}.cls-4,.cls-5{fill:#fff;}.cls-5{font-size:10px;font-family:Arial-BoldMT, Arial;font-weight:700;letter-spacing:0.05em;}</style></defs><path class="cls-1" d="M55.53,51.74V23.42H68.9a20.65,20.65,0,0,1,5.54.6,6.06,6.06,0,0,1,3.37,2.51,7.06,7.06,0,0,1,1.29,4,6.12,6.12,0,0,1-4.31,6.1v.08q5.67,1.42,5.66,6.88a7.77,7.77,0,0,1-1.69,5,6.91,6.91,0,0,1-4,2.65,34.35,34.35,0,0,1-6.89.51Zm7.23-23.06v5.93h3.8c2.31,0,3.8-.27,4.46-.81a2.68,2.68,0,0,0,1-2.23,2.58,2.58,0,0,0-.94-2.11c-.62-.52-2.21-.78-4.76-.78Zm0,11v6.68h4.87c2.24,0,3.71-.29,4.41-.88a3,3,0,0,0,1-2.44A3,3,0,0,0,72,40.52c-.75-.6-2.3-.89-4.65-.89Z"/><path class="cls-1" d="M84.08,51.74V23.42h7.25V45.89h13.92v5.85Z"/><path class="cls-1" d="M109.33,51.74V23.42h11.75a20.46,20.46,0,0,1,4.73.49A10.29,10.29,0,0,1,130,26.18a11,11,0,0,1,3.19,4.69,19,19,0,0,1,1.08,6.63q0,6.75-3.24,10.49t-9.78,3.75ZM116.56,29V46.16h3.2a12.65,12.65,0,0,0,3.7-.45,4.35,4.35,0,0,0,2.44-2.29,12.78,12.78,0,0,0,1-5.76,12.57,12.57,0,0,0-1-5.87,4.57,4.57,0,0,0-2.65-2.34,15.67,15.67,0,0,0-4.26-.47Z"/><path class="cls-2" d="M138.52,59.53V31.24h6.12v3h.1a7.3,7.3,0,0,1,6.4-3.48,7.81,7.81,0,0,1,6.2,2.91,11.65,11.65,0,0,1,2.47,7.81,11.71,11.71,0,0,1-2.47,7.76,7.81,7.81,0,0,1-6.28,3,7.62,7.62,0,0,1-5.89-2.74V59.53Zm14.57-18.12A6.85,6.85,0,0,0,152,37.17a3.43,3.43,0,0,0-2.82-1.44,3.57,3.57,0,0,0-2.92,1.44,6.59,6.59,0,0,0-1.15,4.2,6.58,6.58,0,0,0,1.23,4.38,3.67,3.67,0,0,0,2.88,1.43A3.37,3.37,0,0,0,152,45.73,7.11,7.11,0,0,0,153.09,41.41Z"/><path class="cls-2" d="M163.63,51.74V23.42h6.65V33.85a8.24,8.24,0,0,1,6.49-3.07A7,7,0,0,1,182,32.66q1.86,1.89,1.86,6.54V51.74h-6.66V40.67c0-2-.27-3.27-.81-3.86a2.87,2.87,0,0,0-2.23-.89,3.45,3.45,0,0,0-2.83,1.24c-.67.82-1,2.33-1,4.54v10Z"/><path class="cls-2" d="M194.56,37.7l-6.25-.87a7.11,7.11,0,0,1,2.95-4.6q2.22-1.45,7.26-1.45,4.88,0,7.29,1.6t2.41,6.86v7a12.3,12.3,0,0,0,1.06,5.54h-6.49a6.79,6.79,0,0,1-.75-2.37,9.73,9.73,0,0,1-7.21,2.85,7.59,7.59,0,0,1-5.25-1.7,5.59,5.59,0,0,1-1.89-4.32,5.45,5.45,0,0,1,1.44-3.82q1.44-1.58,5.59-2.42a49.22,49.22,0,0,0,6.86-1.74,4.25,4.25,0,0,0-.52-2.31c-.35-.52-1.21-.78-2.57-.78C196.39,35.13,195.08,36,194.56,37.7Zm7,4.86v-.63A36.27,36.27,0,0,1,197.64,43c-2.15.51-3.23,1.41-3.23,2.7a2.34,2.34,0,0,0,.72,1.68,2.85,2.85,0,0,0,2.08.73,4.41,4.41,0,0,0,2.38-.67,3.81,3.81,0,0,0,1.53-1.62A8.13,8.13,0,0,0,201.58,42.56Z"/><path class="cls-2" d="M219.81,51.74h-6.68V31.24h6.22v3.13h.08q1.71-3.58,4.73-3.59a8.05,8.05,0,0,1,3.69,1L225.78,37a5.24,5.24,0,0,0-2.53-.75A2.77,2.77,0,0,0,220.7,38c-.59,1.18-.89,3.56-.89,7.12Z"/><path class="cls-2" d="M230.58,51.74V31.24h6.18V34.1a8.35,8.35,0,0,1,6.72-3.32q4.28,0,6.05,3.32a8.51,8.51,0,0,1,6.72-3.32,7.5,7.5,0,0,1,4.8,1.61q2,1.62,2,6.33v13h-6.64V40q0-4.11-2.77-4.11-3.51,0-3.51,5.62v10.2h-6.65V40.5a6.87,6.87,0,0,0-.66-3.62,2.27,2.27,0,0,0-2-1,3.21,3.21,0,0,0-2.7,1.24c-.64.82-1,2.29-1,4.42V51.74Z"/><path class="cls-3" d="M22.88,5.27H9.76A9.76,9.76,0,0,0,0,15V48.88a9.76,9.76,0,0,0,9.76,9.76H22.88a22.6,22.6,0,0,0,16.48-7.12H9.54A2.42,2.42,0,0,1,7.12,49.1V14.81a2.42,2.42,0,0,1,2.42-2.42H27.06a9.22,9.22,0,0,1,9.22,9.22c0,3.5-1.06,7.06-4,8.94a10.58,10.58,0,0,1,5,9v1.4a10.74,10.74,0,0,1-.59,3.46h7.19A22.61,22.61,0,0,0,45.53,36V27.92A22.65,22.65,0,0,0,22.88,5.27Z"/><path class="cls-3" d="M30.18,22.69a4.89,4.89,0,0,0-4.94-4.88h-11v9.77h11A4.9,4.9,0,0,0,30.18,22.69Z"/><path class="cls-3" d="M14.24,44.4h11.5a4.94,4.94,0,0,0,0-9.88H14.24Z"/><path class="cls-4" d="M37.31,40.94v-1.4a10.56,10.56,0,0,0-5-9c2.93-1.89,4-5.45,4-8.94a9.22,9.22,0,0,0-9.22-9.22H9.54a2.42,2.42,0,0,0-2.42,2.42V49.1a2.43,2.43,0,0,0,2.42,2.42H39.32l.28-.29.12-.12,0,0a24.08,24.08,0,0,0,4.16-6.67H36.72A10.48,10.48,0,0,0,37.31,40.94ZM14.24,17.81h11a4.89,4.89,0,1,1,0,9.77h-11ZM25.75,44.4H14.24V34.51H25.75a4.95,4.95,0,0,1,0,9.89Z"/><text class="cls-5" transform="translate(39.2 8.39)">TM</text></svg>