<?xml version="1.0" encoding="utf-8"?>
<!-- Generator: Adobe Illustrator 21.0.0, SVG Export Plug-In . SVG Version: 6.00 Build 0)  -->
<svg version="1.1" id="图层_1" xmlns="http://www.w3.org/2000/svg" xmlns:xlink="http://www.w3.org/1999/xlink" x="0px" y="0px"
	 viewBox="0 0 8 8" style="enable-background:new 0 0 8 8;" xml:space="preserve">
<style type="text/css">
	.st0{fill:#ffffff;}
</style>
<g>
	<g>
		<path class="st0" d="M5,0.7c-0.2-0.2-0.6-0.2-0.8,0C4.1,0.9,4,1,4,1.1c0,0.1,0.1,0.3,0.2,0.4L6,3.4H0.6C0.3,3.4,0,3.7,0,4
			c0,0.3,0.3,0.6,0.6,0.6H6L4.2,6.5C3.9,6.7,3.9,7,4.2,7.3c0.2,0.2,0.6,0.2,0.8,0l2.9-2.9c0.2-0.2,0.2-0.6,0-0.8L5,0.7L5,0.7z
			 M5,0.7"/>
	</g>
</g>
</svg>
