<?xml version="1.0" encoding="utf-8"?>
<!-- Generator: Adobe Illustrator 16.0.0, SVG Export Plug-In . SVG Version: 6.00 Build 0)  -->
<!DOCTYPE svg PUBLIC "-//W3C//DTD SVG 1.1//EN" "http://www.w3.org/Graphics/SVG/1.1/DTD/svg11.dtd">
<svg version="1.1" id="图层_1" xmlns="http://www.w3.org/2000/svg" xmlns:xlink="http://www.w3.org/1999/xlink" x="0px" y="0px"
	 width="32px" height="32px" viewBox="0 0 32 32" enable-background="new 0 0 32 32" xml:space="preserve">
<g>
	<path fill="none" stroke="#000000" stroke-width="0.5" stroke-linecap="round" stroke-miterlimit="10" d="M4.753,24.82V7.378
		c0-0.55,0.451-0.998,1-0.995l4.055,0.019c0.55,0.002,1.262,0.37,1.583,0.816l0.269,0.375c0.321,0.447,1.033,0.812,1.584,0.812
		H23.83c0.549,0,1,0.45,1,1v1.591"/>
	<path fill="none" stroke="#000000" stroke-width="0.5" stroke-linecap="round" stroke-miterlimit="10" d="M8.46,11.189
		c-0.551,0.002-1.088,0.444-1.194,0.984L4.833,24.57c-0.105,0.539,0.258,0.981,0.808,0.983l18.43,0.063
		c0.551,0.002,1.07-0.44,1.158-0.983l2.005-12.509c0.087-0.543-0.292-0.986-0.843-0.984L8.46,11.189z"/>
</g>
</svg>
