<?xml version="1.0" encoding="utf-8"?>
<!-- Generator: Adobe Illustrator 16.0.0, SVG Export Plug-In . SVG Version: 6.00 Build 0)  -->
<!DOCTYPE svg PUBLIC "-//W3C//DTD SVG 1.1//EN" "http://www.w3.org/Graphics/SVG/1.1/DTD/svg11.dtd">
<svg version="1.1" id="图层_1" xmlns="http://www.w3.org/2000/svg" xmlns:xlink="http://www.w3.org/1999/xlink" x="0px" y="0px"
	 width="32px" height="32px" viewBox="0 0 32 32" enable-background="new 0 0 32 32" xml:space="preserve">
<g>
	
		<line fill="none" stroke="#000000" stroke-width="0.5" stroke-linecap="round" stroke-miterlimit="10" x1="13.505" y1="13.673" x2="21.5" y2="13.673"/>
	
		<line fill="none" stroke="#000000" stroke-width="0.5" stroke-linecap="round" stroke-miterlimit="10" x1="13.505" y1="18.126" x2="19.13" y2="18.126"/>
	<path fill="none" stroke="#000000" stroke-width="0.5" stroke-linecap="round" stroke-miterlimit="10" d="M17.376,26.256h-5.719
		c-0.889,0-1.618-0.729-1.618-1.62V10.165c0-0.89,0.729-1.619,1.618-1.619h11.488c0.89,0,1.618,0.729,1.618,1.619V20.74"/>
	<path d="M19.64,22.41c0-0.781,0.637-1.417,1.418-1.417h3.151l0.405-0.396c0.005-0.006,0.015-0.004,0.021-0.01h-3.578
		c-1.004,0-1.822,0.818-1.822,1.822v3.452l0.404-0.397V22.41z"/>
	<polygon points="19.64,25.465 19.64,26.047 24.804,20.993 24.209,20.993 	"/>
	<path d="M24.907,20.601c-0.008-0.008-0.02-0.006-0.028-0.012h-0.243c-0.007,0.005-0.016,0.003-0.021,0.009l-0.406,0.396h0.595
		l0.101-0.1C24.985,20.814,24.987,20.683,24.907,20.601"/>
	<path d="M19.235,25.861v0.386c0.027,0.012,0.052,0.034,0.081,0.034c0.052,0,0.104-0.021,0.146-0.06l0.178-0.175v-0.581
		L19.235,25.861z"/>
	<path d="M8.755,22.011c-0.693,0-1.258-0.563-1.258-1.258V7.44c0-0.694,0.564-1.258,1.258-1.258h10.566
		c0.694,0,1.258,0.564,1.258,1.258v0.285h0.463V7.44c0-0.95-0.771-1.721-1.721-1.721H8.755c-0.949,0-1.722,0.771-1.722,1.721v13.313
		c0,0.948,0.772,1.721,1.722,1.721H9.04v-0.463H8.755z"/>
</g>
</svg>
