<?xml version="1.0" encoding="utf-8"?>
<!-- Generator: Adobe Illustrator 16.0.0, SVG Export Plug-In . SVG Version: 6.00 Build 0)  -->
<!DOCTYPE svg PUBLIC "-//W3C//DTD SVG 1.1//EN" "http://www.w3.org/Graphics/SVG/1.1/DTD/svg11.dtd">
<svg version="1.1" id="图层_1" xmlns="http://www.w3.org/2000/svg" xmlns:xlink="http://www.w3.org/1999/xlink" x="0px" y="0px"
	 width="32px" height="32px" viewBox="0 0 32 32" enable-background="new 0 0 32 32" xml:space="preserve">
<g>
	<g>
		<defs>
			<rect id="SVGID_1_" x="4.991" y="5.5" width="22.019" height="21"/>
		</defs>
		<clipPath id="SVGID_2_">
			<use xlink:href="#SVGID_1_"  overflow="visible"/>
		</clipPath>
		<path clip-path="url(#SVGID_2_)" d="M25.752,16.34l-7.854,7.853l-9.579-9.579l7.854-7.853c0.989-0.988,2.584-0.988,3.575,0
			l6.004,6.003C26.738,13.752,26.738,15.353,25.752,16.34 M10.448,24.488l-4.212-4.213c-0.987-0.986-0.987-2.59,0-3.574l1.727-1.728
			l9.575,9.575C15.553,26.459,12.399,26.441,10.448,24.488 M26.111,12.407l-6.004-6.003c-1.188-1.187-3.107-1.185-4.293,0
			l-9.938,9.938c-1.185,1.185-1.185,3.105,0,4.291l4.212,4.213c2.172,2.172,5.7,2.172,7.875-0.004l8.146-8.145
			C27.295,15.513,27.295,13.592,26.111,12.407"/>
	</g>
</g>
</svg>
