<?xml version="1.0" encoding="utf-8"?>
<!-- Generator: Adobe Illustrator 16.0.0, SVG Export Plug-In . SVG Version: 6.00 Build 0)  -->
<!DOCTYPE svg PUBLIC "-//W3C//DTD SVG 1.1//EN" "http://www.w3.org/Graphics/SVG/1.1/DTD/svg11.dtd">
<svg version="1.1" id="图层_1" xmlns="http://www.w3.org/2000/svg" xmlns:xlink="http://www.w3.org/1999/xlink" x="0px" y="0px"
	 width="32px" height="32px" viewBox="0 0 32 32" enable-background="new 0 0 32 32" xml:space="preserve">
<g>
	<path d="M15.35,23.84c-0.705,0-1.393-0.062-2.06-0.171c0.13-0.732,0.05-1.51-0.29-2.232c-0.339-0.724-1.005-1.25-1.874-1.484
		c-0.815-0.221-1.703-0.148-2.437,0.197c-0.423,0.199-0.763,0.549-0.992,0.976C5.785,19.483,4.6,17.233,4.6,14.754
		c0-5.01,4.822-9.086,10.75-9.086c5.927,0,10.75,4.076,10.75,9.086c0,1.2-0.283,2.344-0.785,3.394l0.422,0.284
		c0.556-1.133,0.863-2.376,0.863-3.678c0-5.286-5.047-9.586-11.25-9.586c-6.203,0-11.25,4.3-11.25,9.586
		c0,2.685,1.307,5.112,3.402,6.854c-0.016,0.057-0.042,0.106-0.054,0.164c-0.148,0.707,0.029,1.414,0.487,1.938
		c1.244,1.426,3.55,0.976,4.66,0.571c-0.3,0.705-0.849,1.308-1.595,1.658c-0.991,0.465-2.103,0.519-3.132,0.146
		c-1.029-0.371-1.852-1.121-2.318-2.112c-0.059-0.125-0.206-0.177-0.332-0.118c-0.125,0.059-0.179,0.207-0.12,0.332
		c0.522,1.11,1.446,1.952,2.601,2.368c0.509,0.185,1.036,0.275,1.562,0.275c0.666,0,1.33-0.146,1.951-0.439
		c0.974-0.456,1.648-1.286,1.953-2.237c0.708,0.119,1.437,0.185,2.185,0.185c2.259,0,4.36-0.575,6.125-1.556l-0.063-0.532
		C19.684,23.253,17.598,23.84,15.35,23.84 M8.902,20.603c0.389-0.184,0.828-0.275,1.273-0.275c0.276,0,0.553,0.035,0.821,0.106
		c0.725,0.196,1.276,0.628,1.552,1.216c0.293,0.623,0.362,1.291,0.252,1.922c-1.787-0.369-3.397-1.115-4.71-2.137
		C8.267,21.067,8.55,20.768,8.902,20.603 M8.312,23.383c-0.34-0.39-0.473-0.912-0.381-1.442c1.191,0.896,2.597,1.582,4.152,1.984
		C11.018,24.248,9.271,24.483,8.312,23.383"/>
	<path d="M27.602,20.899l-2.354-1.592l-0.416-0.281l-2.221-1.5c-0.146-0.099-0.278-0.146-0.389-0.146
		c-0.231,0-0.365,0.209-0.32,0.58l0.441,3.679l0.068,0.566l0.216,1.804c0.035,0.289,0.118,0.435,0.222,0.435
		c0.094,0,0.203-0.114,0.312-0.353l0.573-1.272c0.119-0.262,0.293-0.396,0.473-0.396c0.164,0,0.333,0.11,0.473,0.332l0.693,1.11
		c0.229,0.365,0.561,0.594,0.824,0.594c0.072,0,0.141-0.018,0.199-0.055c0.271-0.17,0.256-0.69-0.037-1.156l-0.727-1.164
		c-0.277-0.443-0.1-0.784,0.391-0.784c0.025,0,0.052,0.001,0.078,0.003l1.332,0.09c0.039,0.002,0.076,0.004,0.111,0.004
		C27.99,21.397,28.025,21.185,27.602,20.899"/>
</g>
</svg>
