<?xml version="1.0" encoding="utf-8"?>
<!-- Generator: Adobe Illustrator 16.0.0, SVG Export Plug-In . SVG Version: 6.00 Build 0)  -->
<!DOCTYPE svg PUBLIC "-//W3C//DTD SVG 1.1//EN" "http://www.w3.org/Graphics/SVG/1.1/DTD/svg11.dtd">
<svg version="1.1" id="图层_1" xmlns="http://www.w3.org/2000/svg" xmlns:xlink="http://www.w3.org/1999/xlink" x="0px" y="0px"
	 width="32px" height="32px" viewBox="0 0 32 32" enable-background="new 0 0 32 32" xml:space="preserve">
<g>
	<polygon points="4.555,23.851 4.555,7.599 26.056,7.599 26.056,18.14 26.556,18.478 26.556,7.099 4.055,7.099 4.055,24.351 
		23.017,24.351 22.956,23.851 	"/>
	<path d="M29.011,21.342l-2.455-1.659l-0.5-0.338l-2.036-1.376c-0.146-0.099-0.278-0.146-0.39-0.146c-0.231,0-0.364,0.209-0.32,0.58
		l0.655,5.447l0.061,0.5l0.013,0.103c0.035,0.288,0.117,0.435,0.222,0.435c0.093,0,0.202-0.115,0.31-0.354l0.084-0.184l0.227-0.5
		l0.266-0.59c0.118-0.262,0.291-0.396,0.473-0.396c0.15,0,0.308,0.104,0.439,0.3c0.009,0.014,0.021,0.018,0.03,0.032l0.47,0.752
		l0.225,0.358c0.229,0.365,0.562,0.594,0.824,0.594c0.073,0,0.141-0.019,0.199-0.055c0.271-0.17,0.256-0.69-0.035-1.156
		l-0.729-1.164c-0.276-0.443-0.1-0.784,0.392-0.784c0.024,0,0.052,0.002,0.078,0.004l1.332,0.089c0.04,0.003,0.077,0.004,0.11,0.004
		C29.398,21.839,29.433,21.627,29.011,21.342"/>
</g>
</svg>
