<?xml version="1.0" encoding="utf-8"?>
<!-- Generator: Adobe Illustrator 16.0.0, SVG Export Plug-In . SVG Version: 6.00 Build 0)  -->
<!DOCTYPE svg PUBLIC "-//W3C//DTD SVG 1.1//EN" "http://www.w3.org/Graphics/SVG/1.1/DTD/svg11.dtd">
<svg version="1.1" id="图层_1" xmlns="http://www.w3.org/2000/svg" xmlns:xlink="http://www.w3.org/1999/xlink" x="0px" y="0px"
	 width="32px" height="32px" viewBox="0 0 32 32" enable-background="new 0 0 32 32" xml:space="preserve">
<g>
	<g>
		<path d="M10.778,25H6.98c-0.689,0-1.25-0.561-1.25-1.25V8.25C5.73,7.561,6.291,7,6.98,7h3.517v0.5H6.98
			c-0.414,0-0.75,0.336-0.75,0.75v15.5c0,0.413,0.336,0.75,0.75,0.75h3.798V25z"/>
	</g>
	<g>
		<path d="M25.02,25h-3.799v-0.5h3.799c0.413,0,0.75-0.337,0.75-0.75V8.25c0-0.414-0.337-0.75-0.75-0.75h-3.516V7h3.516
			c0.689,0,1.25,0.561,1.25,1.25v15.5C26.27,24.439,25.709,25,25.02,25z"/>
	</g>
</g>
</svg>
