<?xml version="1.0" encoding="utf-8"?>
<!-- Generator: Adobe Illustrator 21.0.0, SVG Export Plug-In . SVG Version: 6.00 Build 0)  -->
<svg version="1.1" id="图层_1" xmlns="http://www.w3.org/2000/svg" xmlns:xlink="http://www.w3.org/1999/xlink" x="0px" y="0px"
	 viewBox="0 0 32 32" style="enable-background:new 0 0 32 32;" xml:space="preserve">
<style type="text/css">
	.st0{fill:none;}
</style>
<g>
	<path class="st0" d="M11,23.5l-4.6-7.9l0.4-0.3l4.6,7.9L11,23.5z M11.5,6.7h9.1v0.5h-9.1V6.7z"/>
	<polygon points="9.8,25.8 3.7,15.1 9.8,4.5 22.2,4.5 28.3,15.1 24.7,21.4 25,21.6 25.1,21.7 28.9,15.1 22.4,4 9.6,4 3.1,15.1 
		9.6,26.3 21.4,26.3 21.3,25.8 	"/>
	<rect x="11.5" y="6.7" width="9.1" height="0.5"/>
	<rect x="8.7" y="14.8" transform="matrix(0.866 -0.5 0.5 0.866 -8.4962 7.0513)" width="0.5" height="9.1"/>
	<path d="M25.4,15.6l-0.4-0.3L22.2,20c0.2,0,0.3,0.1,0.5,0.1L25.4,15.6z"/>
	<polygon points="20.4,23.2 20.8,23.5 21,23.1 20.9,22.3 	"/>
	<path d="M27.2,24.5l-2.3-1.7l-0.3-0.2l-0.2-0.1l-0.2-0.2l-1.7-1.2C22.4,21,22.3,21,22.2,21c0,0-0.1,0-0.1,0c-0.2,0-0.3,0.2-0.3,0.6
		l0,0.1l0.4,3.9l0.1,0.7l0.1,0.7l0.1,0.5l0,0.1c0,0.3,0.1,0.4,0.2,0.4c0.1,0,0.2-0.1,0.3-0.4l0.1-0.2l0.2-0.5l0.3-0.6
		c0.1-0.3,0.3-0.4,0.4-0.4c0.1,0,0.3,0.1,0.4,0.3c0,0,0,0,0,0l0.4,0.8l0.2,0.4c0.2,0.4,0.5,0.6,0.8,0.6c0.1,0,0.1,0,0.2-0.1
		c0.3-0.2,0.2-0.7,0-1.2l-0.7-1.2c-0.3-0.4-0.1-0.8,0.4-0.8c0,0,0,0,0.1,0L27,25c0,0,0.1,0,0.1,0C27.6,25,27.6,24.7,27.2,24.5z"/>
</g>
</svg>
