<?xml version="1.0" encoding="utf-8"?>
<!-- Generator: Adobe Illustrator 16.0.0, SVG Export Plug-In . SVG Version: 6.00 Build 0)  -->
<!DOCTYPE svg PUBLIC "-//W3C//DTD SVG 1.1//EN" "http://www.w3.org/Graphics/SVG/1.1/DTD/svg11.dtd">
<svg version="1.1" id="图层_1" xmlns="http://www.w3.org/2000/svg" xmlns:xlink="http://www.w3.org/1999/xlink" x="0px" y="0px"
	 width="32px" height="32px" viewBox="0 0 32 32" enable-background="new 0 0 32 32" xml:space="preserve">
<g>
	<path d="M24.768,19.773c-0.008-0.01-0.021-0.008-0.033-0.016h-0.287c-0.008,0.008-0.02,0.004-0.025,0.012l-0.479,0.469h0.703
		l0.118-0.117C24.861,20.025,24.863,19.871,24.768,19.773"/>
	<g>
		<g>
			
				<line fill="none" stroke="#000000" stroke-width="0.5" stroke-linecap="round" stroke-miterlimit="10" x1="11.267" y1="11.57" x2="20.734" y2="11.57"/>
			
				<line fill="none" stroke="#000000" stroke-width="0.5" stroke-linecap="round" stroke-miterlimit="10" x1="11.267" y1="16.842" x2="20.734" y2="16.842"/>
			<path fill="none" stroke="#000000" stroke-width="0.5" stroke-linecap="round" stroke-miterlimit="10" d="M15.851,26.471H9.079
				c-1.055,0-1.917-0.863-1.917-1.916V7.417c0-1.054,0.862-1.917,1.917-1.917h13.603c1.055,0,1.918,0.863,1.918,1.917v12.523"/>
			<path d="M18.531,21.916c0-0.926,0.752-1.68,1.678-1.68h3.732l0.479-0.467c0.006-0.008,0.019-0.006,0.024-0.012h-4.237
				c-1.189,0-2.156,0.969-2.156,2.158v4.086l0.479-0.469V21.916L18.531,21.916z"/>
			<polygon points="18.531,25.533 18.531,26.223 24.645,20.238 23.943,20.238 			"/>
		</g>
		<path d="M18.053,26.002v0.457c0.031,0.016,0.061,0.041,0.096,0.041c0.063,0,0.123-0.021,0.172-0.07l0.211-0.207v-0.689
			L18.053,26.002z"/>
	</g>
</g>
</svg>
